<svg xmlns="http://www.w3.org/2000/svg" width="19.044" height="19.23" viewBox="0 0 19.044 19.23"><defs><style>.a{fill:#fff;}</style></defs><path class="a" d="M18.589,3.649a1.869,1.869,0,0,0-1.431-.632H3.471L3.333,1.984A2.089,2.089,0,0,0,1.569,0H.563a.563.563,0,0,0,0,1.127H1.569c.181,0,.564.382.647,1.006l1.613,12.1A2.278,2.278,0,0,0,4.6,15.634a2.328,2.328,0,0,0,1.081.538,2.072,2.072,0,1,0,3.665.041H12.3a2.072,2.072,0,1,0,3.686,0H17.46a.563.563,0,1,0,0-1.127H6.095a1.209,1.209,0,0,1-1.15-1.007L4.827,13.2H15.951a2.339,2.339,0,0,0,2.266-1.984l.808-6.061a1.869,1.869,0,0,0-.437-1.5ZM8.448,17.158a.945.945,0,1,1-.945-.945A.946.946,0,0,1,8.448,17.158Zm6.638,0a.945.945,0,1,1-.945-.945A.946.946,0,0,1,15.086,17.158ZM17.741,4.391a.757.757,0,0,1,.168.61L17.57,7.543H13.737l.227-3.4h3.195a.758.758,0,0,1,.583.247Zm-8,7.678-.227-3.4h3.019l-.227,3.4Zm-.3-4.526-.227-3.4h3.622l-.227,3.4Zm-1.356-3.4.227,3.4H4.074l-.453-3.4ZM4.224,8.67h4.16l.227,3.4H4.677Zm11.727,3.4H13.435l.227-3.4H17.42L17.1,11.062a1.209,1.209,0,0,1-1.15,1.006Zm0,0" transform="translate(0)"/></svg>