<svg xmlns="http://www.w3.org/2000/svg" width="23.962" height="21.962" viewBox="0 0 23.962 21.962"><defs><style>.a{fill:#fff;}</style></defs><path class="a" d="M22.977,25.337H4.242l-.278-3.1a.984.984,0,0,0-.98-.9h-2a.984.984,0,0,0,0,1.968h1.1l1.132,12.61a3.786,3.786,0,0,0,1.417,2.565,2.983,2.983,0,1,0,5.155.82h5.386a2.983,2.983,0,1,0,2.805-1.968H6.989a1.827,1.827,0,0,1-1.68-1.108L21.035,35.3a.984.984,0,0,0,.9-.744l2-8A.985.985,0,0,0,22.977,25.337Zm-15.995,16A1.015,1.015,0,1,1,8,40.316,1.016,1.016,0,0,1,6.982,41.332Zm11,0a1.015,1.015,0,1,1,1.015-1.015A1.016,1.016,0,0,1,17.979,41.332Zm2.22-7.953-15.154.891L4.419,27.3h17.3Z" transform="translate(0 -21.338)"/></svg>